<svg width="33" height="32" viewBox="0 0 33 32" fill="none" xmlns="http://www.w3.org/2000/svg">
<mask id="mask0_5_39" style="mask-type:luminance" maskUnits="userSpaceOnUse" x="0" y="0" width="33" height="32">
<path d="M32.012 0H0.0119629V32H32.012V0Z" fill="white"/>
</mask>
<g mask="url(#mask0_5_39)">
<path d="M32.012 16C32.012 24.8366 24.848 32 16.012 32C11.353 32 7.15996 30.009 4.23596 26.8323C3.46796 25.9984 2.78898 25.0821 2.20998 24.0993C0.812976 21.7234 0.0119629 18.9551 0.0119629 16C0.0119629 7.1634 7.17496 0 16.012 0C18.967 0 21.736 0.801298 24.111 2.1989C25.094 2.7768 26.009 3.4567 26.843 4.2253C30.021 7.1478 32.012 11.3417 32.012 16Z" fill="#F0CD00"/>
<path d="M32.0119 16.0001C32.0119 24.6375 25.1689 31.676 16.6079 31.989C8.04688 31.676 1.20288 24.6375 1.20288 16.0001C1.20288 7.3627 8.04688 0.324 16.6079 0.0112C25.1689 0.324 32.0119 7.3627 32.0119 16.0001Z" fill="#FFDE50"/>
<path d="M26.842 4.2252L4.23499 26.8322C3.46699 25.9982 2.78798 25.082 2.20898 24.0991L24.11 2.1987C25.093 2.7767 26.008 3.4565 26.842 4.2252Z" fill="#FFEA94"/>
<path d="M30.9069 10.1505L10.1599 30.897C8.6919 30.32 7.32889 29.531 6.10889 28.5694L28.5799 6.09891C29.5419 7.31811 30.3299 8.68111 30.9069 10.1505Z" fill="#FFEA94"/>
<path d="M28.4439 15.9999C28.4439 22.8662 22.8769 28.4329 16.0109 28.4329C13.6199 28.4329 11.3859 27.7576 9.48988 26.5873C8.66388 26.0779 7.90288 25.4738 7.21988 24.7907C6.71688 24.2892 6.25788 23.7439 5.84688 23.162C5.28088 22.3607 4.80787 21.4895 4.44287 20.5641C3.90187 19.196 3.59787 17.7083 3.57887 16.1527C3.57787 16.1018 3.57788 16.0508 3.57788 15.9999C3.57788 9.13359 9.14388 3.56689 16.0109 3.56689C16.0619 3.56689 16.1139 3.56689 16.1649 3.56819C17.7199 3.58649 19.2069 3.8915 20.5749 4.4315C21.5009 4.7973 22.3719 5.27009 23.1729 5.83559C23.7549 6.24709 24.2999 6.70619 24.8019 7.20839C25.4849 7.89079 26.0889 8.6529 26.5989 9.4791C27.7689 11.3749 28.4439 13.6084 28.4439 15.9999Z" fill="#FAA300"/>
<path d="M24.8019 7.20839L7.21988 24.7907C6.71688 24.2892 6.25788 23.7439 5.84688 23.162C5.28088 22.3607 4.80787 21.4895 4.44287 20.5641C3.90187 19.196 3.59787 17.7083 3.57887 16.1527C3.57787 16.1018 3.57788 16.0508 3.57788 15.9999C3.57788 9.13359 9.14388 3.56689 16.0109 3.56689C16.0619 3.56689 16.1139 3.56689 16.1649 3.56819C17.7199 3.58649 19.2069 3.8915 20.5749 4.4315C21.5009 4.7973 22.3719 5.27009 23.1729 5.83559C23.7549 6.24709 24.2999 6.70619 24.8019 7.20839Z" fill="#FFBD00"/>
<path d="M28.4441 15.9999C28.4441 22.8662 22.8771 28.4329 16.0111 28.4329C15.7751 28.4329 15.5411 28.4263 15.3091 28.4133C21.8481 28.0495 27.0391 22.6304 27.0391 15.9999C27.0391 9.36929 21.8481 3.95019 15.3091 3.58649C15.5411 3.57339 15.7751 3.56689 16.0111 3.56689C22.8771 3.56689 28.4441 9.13359 28.4441 15.9999Z" fill="#F68E00"/>
<path d="M21.6619 19.139C21.6619 17.4808 20.8049 16.0199 19.5109 15.1733C20.0429 14.4407 20.3579 13.541 20.3579 12.5687C20.3579 10.8896 19.4219 9.4253 18.0439 8.6693V7.05931C18.0439 6.33791 17.4589 5.7532 16.7379 5.7532C16.0169 5.7532 15.4319 6.33791 15.4319 7.05931V8.1235H13.8559V7.05931C13.8559 6.33791 13.2709 5.7532 12.5489 5.7532C11.8279 5.7532 11.2429 6.33791 11.2429 7.05931V8.1235H9.70786C8.98686 8.1235 8.40186 8.70831 8.40186 9.42961C8.40186 10.151 8.98686 10.7358 9.70786 10.7358H10.1589V15.7079V21.2642H9.70786C8.98686 21.2642 8.40186 21.8489 8.40186 22.5703C8.40186 23.2917 8.98686 23.8764 9.70786 23.8764H11.2429V24.9406C11.2429 25.662 11.8279 26.2468 12.5499 26.2468C13.2709 26.2468 13.8559 25.662 13.8559 24.9406V23.8764H15.4319V24.9406C15.4319 25.662 16.0169 26.2468 16.7379 26.2468C17.4599 26.2468 18.0439 25.662 18.0439 24.9406V23.7416C20.1179 23.2371 21.6619 21.3656 21.6619 19.139ZM12.7709 10.7358H15.9119C16.9229 10.7358 17.7449 11.558 17.7449 12.5687C17.7449 13.5794 16.9229 14.4017 15.9119 14.4017H12.7709V10.7358ZM16.9249 21.2642H12.7709V17.014H15.9119H16.9249C18.0959 17.014 19.0499 17.9673 19.0499 19.1391C19.0499 20.3109 18.0959 21.2642 16.9249 21.2642Z" fill="#F68E00"/>
<path d="M23.2949 19.139C23.2949 17.4808 22.4379 16.0199 21.1439 15.1733C21.6759 14.4407 21.9899 13.541 21.9899 12.5687C21.9899 10.8896 21.0549 9.4253 19.6769 8.6693V7.05931C19.6769 6.33791 19.0919 5.7532 18.3709 5.7532C17.6499 5.7532 17.0649 6.33791 17.0649 7.05931V8.1235H15.4879V7.05931C15.4879 6.33791 14.9039 5.7532 14.1819 5.7532C13.4609 5.7532 12.8759 6.33791 12.8759 7.05931V8.1235H11.3409C10.6199 8.1235 10.0349 8.70831 10.0349 9.42961C10.0349 10.151 10.6199 10.7358 11.3409 10.7358H11.7919V15.7079V21.2642H11.3409C10.6199 21.2642 10.0349 21.8489 10.0349 22.5703C10.0349 23.2917 10.6199 23.8764 11.3409 23.8764H12.8759V24.9406C12.8759 25.662 13.4609 26.2468 14.1819 26.2468C14.9039 26.2468 15.4879 25.662 15.4879 24.9406V23.8764H17.0649V24.9406C17.0649 25.662 17.6499 26.2468 18.3709 26.2468C19.0919 26.2468 19.6769 25.662 19.6769 24.9406V23.7416C21.7509 23.2371 23.2949 21.3656 23.2949 19.139ZM14.4039 10.7358H17.5449C18.5559 10.7358 19.3779 11.558 19.3779 12.5687C19.3779 13.5794 18.5559 14.4017 17.5449 14.4017H14.4039V10.7358ZM18.5579 21.2642H14.4039V17.014H17.5449H18.5579C19.7289 17.014 20.6829 17.9673 20.6829 19.1391C20.6829 20.3109 19.7289 21.2642 18.5579 21.2642Z" fill="#FFEA94"/>
</g>
</svg>
