<svg width="33" height="32" viewBox="0 0 33 32" fill="none" xmlns="http://www.w3.org/2000/svg">
<mask id="mask0_5_72" style="mask-type:luminance" maskUnits="userSpaceOnUse" x="0" y="0" width="33" height="32">
<path d="M32.012 0H0.0119629V32H32.012V0Z" fill="white"/>
</mask>
<g mask="url(#mask0_5_72)">
<path d="M16.012 32C24.848 32 32.012 24.8366 32.012 16C32.012 7.1634 24.848 0 16.012 0C7.17496 0 0.0119629 7.1634 0.0119629 16C0.0119629 24.8366 7.17496 32 16.012 32Z" fill="#F3BA2F"/>
<path d="M12.128 14.404L16.012 10.52L19.898 14.406L22.158 12.146L16.012 6L9.86798 12.144L12.128 14.404ZM6.01196 16L8.27197 13.74L10.532 16L8.27197 18.26L6.01196 16ZM12.128 17.596L16.012 21.48L19.898 17.594L22.158 19.853L16.012 26L9.86798 19.856L9.86496 19.853L12.128 17.596ZM21.492 16L23.752 13.74L26.012 16L23.752 18.26L21.492 16ZM18.304 15.998H18.306V16L16.012 18.294L13.721 16.004L13.717 16L13.721 15.997L14.122 15.595L14.317 15.4L16.012 13.706L18.304 15.998Z" fill="white"/>
</g>
</svg>
