<svg width="32" height="32" viewBox="0 0 32 32" fill="none" xmlns="http://www.w3.org/2000/svg">
<mask id="mask0_5_66" style="mask-type:luminance" maskUnits="userSpaceOnUse" x="0" y="0" width="33" height="32">
<path d="M32.005 0H0V32H32.005V0Z" fill="white"/>
</mask>
<g mask="url(#mask0_5_66)">
<path d="M31.5 19.8702C30.738 22.9436 29.08 25.7217 26.738 27.8527C24.396 29.984 21.474 31.372 18.342 31.841C15.211 32.31 12.01 31.84 9.14599 30.489C6.28199 29.139 3.88299 26.9687 2.25299 24.2539C0.623288 21.5391 -0.16451 18.4017 -0.0103103 15.2389C0.14379 12.0761 1.23299 9.03011 3.11899 6.48671C5.00599 3.94331 7.60399 2.01681 10.586 0.951108C13.568 -0.114592 16.799 -0.271497 19.87 0.500203C23.977 1.5324 27.508 4.1508 29.688 7.7817C31.868 11.4126 32.52 15.7597 31.5 19.8702Z" fill="#6E7CCA"/>
<g opacity="0.24">
<path d="M31.5 19.8702C30.639 23.3252 28.65 26.3942 25.848 28.5913C23.046 30.788 19.591 31.988 16.03 32C14.715 31.993 13.405 31.825 12.13 31.5C9.06698 30.729 6.30199 29.07 4.18098 26.7297C2.05998 24.3899 0.678489 21.4747 0.211289 18.3514C-0.256011 15.2282 0.211487 12.0364 1.55479 9.1783C2.89799 6.3202 5.05699 3.9235 7.75999 2.2902C10.472 0.669301 13.603 -0.1126 16.758 0.0430998C19.914 0.1989 22.952 1.2853 25.491 3.1654C28.03 5.0456 29.956 7.6352 31.025 10.608C32.094 13.5808 32.26 16.8036 31.5 19.8702Z" fill="white"/>
</g>
<g opacity="0.3">
<path d="M31.046 10.5652L0.205628 18.5652C-0.431172 14.6311 0.423129 10.6009 2.60103 7.2635C4.78003 3.9262 8.12503 1.5218 11.983 0.521205C15.84 -0.479495 19.932 -0.00449443 23.458 1.85321C26.984 3.71091 29.69 6.8176 31.046 10.5652Z" fill="white"/>
</g>
<path d="M28.611 19.145C27.99 21.6402 26.642 23.895 24.739 25.6244C22.837 27.3538 20.464 28.48 17.921 28.8607C15.378 29.241 12.779 28.8593 10.453 27.7629C8.12699 26.6665 6.17898 24.905 4.85398 22.7012C3.52898 20.4974 2.88799 17.9502 3.01099 15.3818C3.13399 12.8134 4.01598 10.3392 5.54498 8.27212C7.07498 6.20502 9.18298 4.63791 11.603 3.76881C14.023 2.89981 16.646 2.76801 19.141 3.39001C22.486 4.22391 25.362 6.35212 27.138 9.30662C28.914 12.2611 29.444 15.8 28.611 19.145Z" fill="#6E7CCA"/>
<path d="M16 19.5002L16.13 19.6252L21.96 16.1802L16.14 6.50018L16.01 6.93018L16 19.5002Z" fill="#FFFDFE"/>
<path d="M16.1399 19.6252V6.50018L10.3049 16.1802L16.1399 19.6252Z" fill="#B0E7FF"/>
<path d="M16.064 25.2902L16.139 25.5002L21.999 17.2852L16.139 20.7302L16.064 20.8152V25.2902Z" fill="#FFFDFF"/>
<path d="M10.3049 17.2852L16.1399 25.5002V20.7302L10.3049 17.2852Z" fill="#B0E7FF"/>
<path d="M16.1411 13.53V19.625L21.9711 16.18L16.1411 13.53Z" fill="#FFFDFF"/>
<path d="M16.1399 13.53L10.3049 16.18L16.1399 19.625V13.53Z" fill="#C8F7F7"/>
</g>
</svg>
