<svg width="33" height="32" viewBox="0 0 33 32" fill="none" xmlns="http://www.w3.org/2000/svg">
<mask id="mask0_5_26" style="mask-type:luminance" maskUnits="userSpaceOnUse" x="0" y="0" width="33" height="32">
<path d="M32.012 0H0.0119629V32H32.012V0Z" fill="white"/>
</mask>
<g mask="url(#mask0_5_26)">
<path d="M16.0139 32C24.8499 32 32.0139 24.8366 32.0139 16C32.0139 7.1634 24.8499 0 16.0139 0C7.17692 0 0.013916 7.1634 0.013916 16C0.013916 24.8366 7.17692 32 16.0139 32Z" fill="#4E2B97"/>
<path d="M16.0139 29.5C23.4699 29.5 29.5139 23.4558 29.5139 16C29.5139 8.5442 23.4699 2.5 16.0139 2.5C8.55792 2.5 2.51392 8.5442 2.51392 16C2.51392 23.4558 8.55792 29.5 16.0139 29.5Z" fill="url(#paint0_linear_5_26)"/>
<path d="M11.084 19.0175C11.128 18.9724 11.18 18.9366 11.238 18.9124C11.296 18.8882 11.358 18.876 11.42 18.8767H23.1C23.133 18.8784 23.165 18.8864 23.194 18.9005C23.224 18.9145 23.25 18.9342 23.272 18.9584C23.293 18.9827 23.31 19.011 23.321 19.0417C23.331 19.0725 23.336 19.105 23.334 19.1375C23.331 19.1969 23.308 19.2534 23.268 19.2975L20.961 21.5999C20.872 21.6892 20.751 21.7398 20.625 21.7407H8.94498C8.89398 21.7449 8.84298 21.7326 8.79998 21.7056C8.75698 21.6786 8.72297 21.6384 8.70397 21.5909C8.68497 21.5434 8.68198 21.4912 8.69598 21.4418C8.70898 21.3924 8.73697 21.3486 8.77697 21.3167L11.084 19.0175Z" fill="url(#paint1_linear_5_26)"/>
<path d="M11.0859 10.4C11.1749 10.3101 11.2959 10.2589 11.4219 10.2576H23.1019C23.1489 10.2582 23.1949 10.2727 23.2339 10.2991C23.2719 10.3255 23.3029 10.3627 23.3209 10.4062C23.3379 10.4496 23.3429 10.4973 23.3339 10.5435C23.3249 10.5896 23.3029 10.632 23.2699 10.6656L20.9629 12.9824C20.8739 13.0716 20.7529 13.1222 20.6269 13.1232H8.94693C8.88093 13.1195 8.81992 13.0899 8.77592 13.041C8.73192 12.9921 8.70992 12.9279 8.71292 12.8624C8.71592 12.803 8.73893 12.7465 8.77893 12.7024L11.0859 10.4Z" fill="url(#paint2_linear_5_26)"/>
<path d="M20.9629 14.6817C20.9189 14.6366 20.8669 14.6008 20.8089 14.5763C20.7519 14.5519 20.6899 14.5393 20.6269 14.5393H8.94693C8.88093 14.543 8.81992 14.5726 8.77592 14.6214C8.73192 14.6703 8.70992 14.7346 8.71292 14.8001C8.71592 14.8595 8.73893 14.9161 8.77893 14.9601L11.0859 17.2561C11.1299 17.3012 11.1819 17.337 11.2399 17.3615C11.2969 17.3859 11.3589 17.3985 11.4219 17.3985H23.1019C23.1489 17.3978 23.1949 17.3834 23.2339 17.357C23.2719 17.3306 23.3029 17.2933 23.3209 17.2499C23.3379 17.2065 23.3429 17.1587 23.3339 17.1126C23.3249 17.0665 23.3029 17.0241 23.2699 16.9905L20.9629 14.6817Z" fill="url(#paint3_linear_5_26)"/>
</g>
<defs>
<linearGradient id="paint0_linear_5_26" x1="16.0139" y1="29.5" x2="16.0139" y2="2.5" gradientUnits="userSpaceOnUse">
<stop stop-color="#170E2B"/>
<stop offset="1" stop-color="#210066"/>
</linearGradient>
<linearGradient id="paint1_linear_5_26" x1="21.98" y1="8.87991" x2="13.892" y2="24.3679" gradientUnits="userSpaceOnUse">
<stop stop-color="#00FFA3"/>
<stop offset="1" stop-color="#DC1FFF"/>
</linearGradient>
<linearGradient id="paint2_linear_5_26" x1="18.4519" y1="7.0352" x2="10.3719" y2="22.5248" gradientUnits="userSpaceOnUse">
<stop stop-color="#00FFA3"/>
<stop offset="1" stop-color="#DC1FFF"/>
</linearGradient>
<linearGradient id="paint3_linear_5_26" x1="20.2119" y1="7.95531" x2="12.1229" y2="23.4433" gradientUnits="userSpaceOnUse">
<stop stop-color="#00FFA3"/>
<stop offset="1" stop-color="#DC1FFF"/>
</linearGradient>
</defs>
</svg>
