<svg width="33" height="32" viewBox="0 0 33 32" fill="none" xmlns="http://www.w3.org/2000/svg">
<mask id="mask0_5_50" style="mask-type:luminance" maskUnits="userSpaceOnUse" x="0" y="0" width="33" height="32">
<path d="M32.0111 0H0.00610352V32H32.0111V0Z" fill="white"/>
</mask>
<g mask="url(#mask0_5_50)">
<path d="M31.5062 19.8702C30.7432 22.9436 29.0862 25.7217 26.7442 27.8527C24.4022 29.984 21.4802 31.372 18.3482 31.841C15.2172 32.31 12.0162 31.84 9.15221 30.489C6.28821 29.139 3.88922 26.9687 2.25922 24.2539C0.629216 21.5391 -0.158785 18.4017 -0.00378489 15.2389C0.150215 12.0761 1.23921 9.03011 3.12521 6.48671C5.01121 3.94331 7.61021 2.01681 10.5922 0.951108C13.5742 -0.114592 16.8052 -0.271497 19.8762 0.500203C23.9832 1.5324 27.5142 4.1508 29.6942 7.7817C31.8742 11.4126 32.5262 15.7597 31.5062 19.8702Z" fill="#63B49F"/>
<g opacity="0.24">
<path d="M31.5063 19.8702C30.6453 23.3252 28.6563 26.3942 25.8543 28.5913C23.0513 30.788 19.5973 31.988 16.0363 32C14.7203 31.993 13.4113 31.825 12.1363 31.5C9.07329 30.729 6.30729 29.07 4.18629 26.7297C2.06529 24.3899 0.684284 21.4747 0.217284 18.3514C-0.249716 15.2282 0.217294 12.0364 1.56129 9.1783C2.90429 6.3202 5.0633 3.9235 7.7663 2.2902C10.4783 0.669301 13.6093 -0.1126 16.7643 0.0430998C19.9193 0.1989 22.9583 1.2853 25.4973 3.1654C28.0363 5.0456 29.9613 7.6352 31.0313 10.608C32.1003 13.5808 32.2653 16.8036 31.5063 19.8702Z" fill="white"/>
</g>
<g opacity="0.3">
<path d="M31.0511 10.5652L0.211108 18.5652C-0.424892 14.6311 0.429105 10.6009 2.6071 7.2635C4.7851 3.9262 8.13112 1.5218 11.9881 0.521205C15.8461 -0.479495 19.9381 -0.00449443 23.4641 1.85321C26.9901 3.71091 29.6961 6.8176 31.0511 10.5652Z" fill="#B2F8E6"/>
</g>
<path d="M28.6173 19.145C27.9953 21.6402 26.6483 23.895 24.7453 25.6244C22.8423 27.3538 20.4693 28.48 17.9263 28.8607C15.3833 29.241 12.7853 28.8593 10.4593 27.7629C8.13334 26.6665 6.18534 24.905 4.86034 22.7012C3.53534 20.4974 2.89434 17.9502 3.01734 15.3818C3.14034 12.8134 4.02233 10.3392 5.55133 8.27212C7.08033 6.20502 9.18834 4.63791 11.6083 3.76881C14.0283 2.89981 16.6523 2.76801 19.1473 3.39001C22.4923 4.22391 25.3683 6.35212 27.1443 9.30662C28.9203 12.2611 29.4503 15.8 28.6173 19.145Z" fill="#59AF99"/>
<path d="M17.6672 14.0306V12.141H21.9662V9.16022H10.0352V12.141H14.3452V14.0306C10.7342 14.205 8.02319 14.9298 8.02319 15.7906C8.02319 16.6514 10.7312 17.3794 14.3452 17.5506V23.7906H17.6672V17.5506C21.2782 17.3778 23.9882 16.653 23.9882 15.7906C23.9882 14.9282 21.2862 14.205 17.6672 14.0306ZM16.0062 17.0002C12.0952 17.0002 8.92619 16.3954 8.92619 15.6674C8.92619 15.0418 11.2352 14.5154 14.3422 14.3746V16.509C14.8762 16.533 15.4312 16.5474 16.0032 16.5474C16.5742 16.5474 17.1322 16.533 17.6632 16.509V14.3746C20.7712 14.5154 23.0792 15.0418 23.0792 15.6674C23.0862 16.4034 19.9162 17.0002 16.0062 17.0002Z" fill="white"/>
</g>
</svg>
