<svg width="33" height="32" viewBox="0 0 33 32" fill="none" xmlns="http://www.w3.org/2000/svg">
<mask id="mask0_5_17" style="mask-type:luminance" maskUnits="userSpaceOnUse" x="0" y="0" width="33" height="32">
<path d="M32.012 0H0.0119629V32H32.012V0Z" fill="white"/>
</mask>
<g mask="url(#mask0_5_17)">
<path d="M16.012 32C24.848 32 32.012 24.8366 32.012 16C32.012 7.1634 24.848 0 16.012 0C7.17496 0 0.0119629 7.1634 0.0119629 16C0.0119629 24.8366 7.17496 32 16.012 32Z" fill="#939598"/>
<path d="M16.012 29.793C23.63 29.793 29.805 23.6179 29.805 16.0001C29.805 8.3824 23.63 2.207 16.012 2.207C8.39399 2.207 2.21899 8.3824 2.21899 16.0001C2.21899 23.6179 8.39399 29.793 16.012 29.793Z" fill="#808285"/>
<path d="M16.0909 0C16.2689 0.7289 16.3969 1.4695 16.4709 2.2163C19.0189 2.3012 21.4929 3.0902 23.6189 4.4958C25.7449 5.9014 27.4399 7.8686 28.5159 10.179C29.5919 12.4895 30.0059 15.0529 29.7139 17.5848C29.4209 20.1166 28.4329 22.518 26.8589 24.5222C25.2839 26.5265 23.185 28.0553 20.795 28.9391C18.404 29.823 15.8149 30.027 13.3159 29.529C10.8159 29.031 8.50395 27.8496 6.63495 26.1168C4.76595 24.384 3.41293 22.1673 2.72693 19.7126C2.00993 19.8107 1.28695 19.8607 0.561951 19.8621C0.534951 19.8621 0.506934 19.8621 0.481934 19.8621C1.20493 22.7686 2.72993 25.4139 4.88193 27.4968C7.03393 29.58 9.72794 31.017 12.6559 31.645C15.5849 32.272 18.6309 32.065 21.4479 31.047C24.2649 30.029 26.7389 28.2408 28.5899 25.8859C30.4399 23.5309 31.5929 20.7037 31.9159 17.7261C32.2389 14.7485 31.7199 11.7399 30.4179 9.0428C29.1149 6.3456 27.082 4.0681 24.549 2.4695C22.016 0.870898 19.0859 0.0152 16.0909 0Z" fill="#808285"/>
<path d="M16.012 29.793C19.613 29.768 23.062 28.3352 25.621 25.8009C28.18 23.2666 29.647 19.8319 29.707 16.2308C29.767 12.6297 28.416 9.14791 25.943 6.52951C23.47 3.91121 20.071 2.36391 16.473 2.21851C16.531 2.76441 16.561 3.31301 16.564 3.86211C16.563 7.73011 15.161 11.467 12.618 14.3811C10.074 17.2952 6.561 19.1892 2.729 19.7126C3.539 22.6124 5.27601 25.1673 7.67401 26.9875C10.073 28.8076 13.001 29.793 16.012 29.793Z" fill="#6D6E71"/>
<path d="M12.89 13.4306C13.3 13.8405 13.786 14.1657 14.322 14.3875C14.857 14.6093 15.431 14.7235 16.011 14.7235C16.59 14.7235 17.164 14.6093 17.7 14.3875C18.235 14.1657 18.722 13.8405 19.132 13.4306L22.907 9.65519C23.016 9.54649 23.102 9.41749 23.161 9.27549C23.22 9.13349 23.25 8.98129 23.25 8.82759C23.25 8.67389 23.22 8.52169 23.161 8.37969C23.102 8.23769 23.016 8.10869 22.907 7.99999C22.799 7.89129 22.67 7.80509 22.528 7.74629C22.386 7.68749 22.233 7.6572 22.08 7.6572C21.926 7.6572 21.774 7.68749 21.632 7.74629C21.49 7.80509 21.361 7.89129 21.252 7.99999L17.571 11.6811C17.157 12.0949 16.596 12.3273 16.011 12.3273C15.426 12.3273 14.864 12.0949 14.451 11.6811L10.769 7.99999C10.55 7.78049 10.252 7.6572 9.94199 7.6572C9.63099 7.6572 9.33401 7.78049 9.11401 7.99999C8.89501 8.21949 8.771 8.51719 8.771 8.82759C8.771 9.13799 8.89501 9.43569 9.11401 9.65519L12.89 13.4306Z" fill="#F1F2F2"/>
<path d="M10.769 24.0001L14.451 20.319C14.864 19.9052 15.426 19.6728 16.011 19.6728C16.596 19.6728 17.157 19.9052 17.571 20.319L21.252 24.0001C21.472 24.2196 21.769 24.3429 22.08 24.3429C22.39 24.3429 22.688 24.2196 22.907 24.0001C23.127 23.7806 23.25 23.4829 23.25 23.1725C23.25 22.8621 23.127 22.5644 22.907 22.3449L19.132 18.5695C18.722 18.1596 18.235 17.8344 17.7 17.6126C17.164 17.3908 16.59 17.2766 16.011 17.2766C15.431 17.2766 14.857 17.3908 14.322 17.6126C13.786 17.8344 13.3 18.1596 12.89 18.5695L9.11401 22.3449C8.89501 22.5644 8.771 22.8621 8.771 23.1725C8.771 23.4829 8.89501 23.7806 9.11401 24.0001C9.33401 24.2196 9.63099 24.3429 9.94199 24.3429C10.252 24.3429 10.55 24.2196 10.769 24.0001Z" fill="#F1F2F2"/>
</g>
</svg>
